<svg xmlns="http://www.w3.org/2000/svg" xmlns:xlink="http://www.w3.org/1999/xlink" version="1.1" x="0px" y="0px" viewBox="0 0 100 125" enable-background="new 0 0 100 100" xml:space="preserve"><path d="M88.1,27.2H73.6c0.1,0.2,0.1,0.3,0.1,0.5V28c0,0.8-0.6,1.4-1.4,1.4l0,0c-0.8,0-1.4-0.6-1.4-1.4v-0.3c0-0.2,0-0.3,0.1-0.5  H30.6c0.1,0.2,0.1,0.3,0.1,0.5V28c0,0.8-0.6,1.4-1.4,1.4c-0.8,0-1.4-0.6-1.4-1.4v-0.3c0-0.2,0-0.3,0.1-0.5H10v-1.9  c0-0.9,0.7-2.3,2.2-2.3h31.1h0h42.5c1.5,0,2.4,1.4,2.4,2.3V27.2z"/><path d="M10,28.8c0,0-0.7,0.1-1.8,0.1c-0.3,0-0.6,0-0.9,0.1c-0.2,0-0.3,0-0.5,0c-0.1,0-0.2,0-0.2,0l-0.1,0l-0.1,0l0,0c0,0-0.1,0,0,0  l0,0l0,0l0,0l-0.1,0c0,0,0,0,0,0c0,0,0,0,0,0c0,0,0.1,0,0.1,0c0,0,0,0,0,0.1c0,0.1,0,0.2,0,0.4l0,0.5c0.2,2.9,0.4,5.8,0.4,5.8  c0.1,0.7-0.5,1.4-1.3,1.5c-0.7,0.1-1.4-0.5-1.5-1.3c0-0.1,0-0.1,0-0.2c0,0,0.2-2.9,0.4-5.8l0-0.5c0-0.2,0-0.4,0.1-0.7  C4.9,28.6,5,28.2,5.3,28c0.1-0.1,0.3-0.3,0.5-0.3c0.1-0.1,0.5-0.1,0.5-0.1l0.1,0l0.1,0l0.1,0c0.1,0,0.2,0,0.2,0c0.2,0,0.3,0,0.5,0  c0.3,0,0.6,0,0.9,0.1c1.1,0.1,1.8,0.1,1.8,0.1c0.3,0,0.5,0.3,0.5,0.5C10.4,28.6,10.2,28.8,10,28.8z"/><path d="M94.2,37.4h-4.3V27.2h4.3V37.4z"/><path d="M49.2,30.1L49.2,30.1L49.2,30.1L49.2,30.1L49.2,30.1l-39.1,0v9.3c0,2.4,1.8,4.5,4,4.5H15h1.1h2.3h0c0,8.6,1.4,17.1-2,22  c-0.5,0.7-0.9,1.3-1.1,1.8c-0.6,1-0.6,2.4-0.6,4.4c0,0,0,1.1,0,1.1c0,1.7,0.4,2.5,1.1,3.1c0.8,0.7,2.4,1.8,5.4,1.8  c0.4,0,14.2,0,28.1,0c0,0,0,0,0,0c13.8,0,27.6,0,28.1,0c3,0,4.7-1.1,5.4-1.8c0.7-0.6,1-1.4,1.1-3.1c0,0,0-1.1,0-1.1  c0-2,0-3.4-0.6-4.4c-0.2-0.5-0.6-1.1-1.1-1.8c-3.5-4.9-2-13.5-2-22h0h2.3h1.1h0.9c2.2,0,4-2,4-4.5v-9.3L49.2,30.1z M71,69.7  c0,0.5-0.4,0.8-0.8,0.8h-5c-0.5,0-0.8,0.3-0.8,0.6s-0.4,0.6-0.8,0.6H49.2h0H35c-0.5,0-0.8-0.3-0.8-0.6s-0.4-0.6-0.8-0.6h-5  c-0.5,0-0.8-0.4-0.8-0.8v-1.4c0-0.5,0.4-0.8,0.8-0.8h20.9h0h20.9c0.5,0,0.8,0.4,0.8,0.8V69.7z M64.5,56.9v-1.3h5.1v1.3h-2v1.6h-1.1  v-1.6H64.5z M65.2,60.4v1.3h-2v1.6h-1.1v-1.6h-2v-1.3H65.2z M60.7,56.9h-2v1.6h-1.1v-1.6h-2v-1.3h5.1V56.9z M56.3,60.4v1.3h-2v1.6  h-1.1v-1.6h-2v-1.3H56.3z M51.9,56.9h-2v1.6h-0.7h0h-0.7v-1.6h-2v-1.3h2.6h0h2.6V56.9z M47.2,60.4v1.3h-2v1.6h-1.1v-1.6h-2v-1.3  H47.2z M42.8,56.9h-2v1.6h-1.1v-1.6h-2v-1.3h5.1V56.9z M38.3,60.4v1.3h-2v1.6h-1.1v-1.6h-2v-1.3H38.3z M33.9,56.9h-2v1.6h-1.1v-1.6  h-2v-1.3h5.1V56.9z M80.7,41H64.2c0,0,0,0,0,0c-0.7,1.3-3,3.6-5.2,4.6l-2.8-3c-0.2-0.3-0.7-0.3-0.9,0c-0.3,0.2-0.3,0.7,0,0.9  l2.5,2.8c-0.6,0.3-2.2,0.9-3.4,1.2l-1.1-4.6c-0.1-0.4-0.5-0.6-0.8-0.5c-0.4,0.1-0.6,0.5-0.5,0.8l1.1,4.6c-0.8,0.2-2.3,0.3-3.1,0.3  c0,0,0-0.1,0-0.1v-4.9c0-0.4-0.3-0.7-0.7-0.7v0c0,0,0,0,0,0s0,0,0,0v0c-0.4,0-0.7,0.3-0.7,0.7V48c0,0,0,0.1,0,0.1  c-0.9,0-2.3-0.2-3.1-0.3l1.1-4.6c0.1-0.4-0.1-0.7-0.5-0.8c-0.4-0.1-0.7,0.1-0.8,0.5l-1.1,4.6c-1.2-0.3-2.8-0.9-3.4-1.2l2.5-2.8  c0.2-0.3,0.2-0.7,0-0.9c-0.3-0.2-0.7-0.2-0.9,0l-2.8,3c-2.2-1-4.5-3.3-5.2-4.6c0,0,0,0,0,0H17.7c-0.3,0-0.6-0.3-0.6-0.7  c0-0.4,0.3-0.7,0.6-0.7h31.5h0h31.5c0.3,0,0.6,0.3,0.6,0.7C81.4,40.7,81.1,41,80.7,41z"/>
</svg>
